<?xml version="1.0" encoding="UTF-8"?>
<svg version="1.1" xmlns="http://www.w3.org/2000/svg" width="420" height="388">
<path d="M0 0 C138.6 0 277.2 0 420 0 C420 128.04 420 256.08 420 388 C281.4 388 142.8 388 0 388 C0 259.96 0 131.92 0 0 Z " fill="#F3EEE5" transform="translate(0,0)"/>
<path d="M0 0 C50.49 0 100.98 0 153 0 C153 0.33 153 0.66 153 1 C152.03066528 1.01401855 152.03066528 1.01401855 151.04174805 1.02832031 C121.41911201 1.55901477 83.73776353 2.45502746 61.109375 24.58984375 C57.4735121 28.74415376 54.6363566 33.15991968 52 38 C51.53851563 38.84046875 51.07703125 39.6809375 50.6015625 40.546875 C29.33071248 83.08857504 37.69769903 145.29011044 37.79940367 191.75909024 C37.81276609 198.1668799 37.8151027 204.57463536 37.8144539 210.98243707 C37.81377234 218.77515101 37.82073301 226.56784517 37.8299005 234.36055303 C37.83200072 236.55789917 37.83273727 238.75524199 37.83313942 240.95258904 C35.35311395 307.41771245 35.35311395 307.41771245 61 366 C61.52335937 366.57621094 62.04671875 367.15242188 62.5859375 367.74609375 C75.86259752 380.76185871 95.32479559 384.45584179 113 387 C113 387.33 113 387.66 113 388 C75.71 388 38.42 388 0 388 C0 259.96 0 131.92 0 0 Z " fill="#F3EEE5" transform="translate(0,0)"/>
<path d="M0 0 C32.01 0 64.02 0 97 0 C97 128.04 97 256.08 97 388 C67.63 388 38.26 388 8 388 C8 387.67 8 387.34 8 387 C9.38058594 386.76216797 9.38058594 386.76216797 10.7890625 386.51953125 C27.15705862 383.50261954 44.55280416 378.64346676 55.34375 365.046875 C65.24117881 349.91384979 69.48775215 333.9009405 71.5625 316.0625 C71.68818359 315.08087891 71.81386719 314.09925781 71.94335938 313.08789062 C74.80960556 288.67227523 74.15211241 263.83376539 74.1343255 239.29058504 C74.13174746 234.60220061 74.13415404 229.91381788 74.13571167 225.22543335 C74.13751671 217.36724489 74.13517014 209.50906592 74.13037109 201.65087891 C74.12492029 192.62234287 74.12670384 183.59382941 74.1321975 174.56529391 C74.13676288 166.74286382 74.13736287 158.92044045 74.13475883 151.09800947 C74.13321623 146.45653691 74.13294612 141.8150749 74.13629532 137.17360306 C74.19928218 102.63724608 74.19928218 102.63724608 71.25 68.25 C71.16385437 67.58777435 71.07770874 66.92554871 70.98895264 66.24325562 C68.61648937 48.29082665 64.39514151 28.36830558 50 16 C34.942283 5.34756717 17.89405032 3.24418952 0 1 C0 0.67 0 0.34 0 0 Z " fill="#F3EEE5" transform="translate(323,0)"/>
<path d="M0 0 C1.83761608 -0.00406375 3.67523205 -0.00818104 5.5128479 -0.01235008 C14.14441869 -0.03127918 22.77598152 -0.04554448 31.40756893 -0.05396205 C41.26095733 -0.06374097 51.11412155 -0.09013007 60.96743107 -0.13046294 C68.66596416 -0.16086223 76.36443366 -0.17545249 84.06302547 -0.17874306 C88.6254228 -0.18106276 93.18757728 -0.18961407 97.74990845 -0.21520424 C163.04129336 -0.56192048 163.04129336 -0.56192048 183.6953125 17.421875 C212.57842515 47.23512179 206.34933649 102.01575422 206.3218255 140.14174318 C206.31925746 144.8273553 206.32165186 149.51296566 206.32321167 154.19857788 C206.32502166 162.06744747 206.32265912 169.93630763 206.31787109 177.80517578 C206.31244216 186.83005904 206.31418594 195.85491965 206.3196975 204.87980235 C206.32427592 212.69710976 206.32485598 220.51441047 206.32225883 228.3317188 C206.32072032 232.97011838 206.32043378 237.60850743 206.32379532 242.24690628 C206.357352 295.90114009 206.357352 295.90114009 203.875 315.92578125 C203.68043213 317.53779419 203.68043213 317.53779419 203.48193359 319.18237305 C202.41836677 327.46407168 200.83958941 335.30116168 198.1875 343.23828125 C197.84074219 344.33785156 197.49398438 345.43742187 197.13671875 346.5703125 C192.28476914 360.62596035 183.93932234 372.40500911 170.453125 379.171875 C162.28738363 383.03647123 154.10437901 385.6589975 145.1875 387.23828125 C144.32158139 387.41085827 143.45566278 387.58343529 142.56350422 387.76124191 C138.44901119 388.34263189 134.45367355 388.38311232 130.304245 388.37872314 C129.42089865 388.38169427 128.53755231 388.38466539 127.62743789 388.38772655 C124.67308369 388.39638466 121.71877016 388.39791938 118.7644043 388.39941406 C116.64334528 388.40404448 114.52228709 388.40906945 112.40122986 388.41445923 C106.64029717 388.42756845 100.87937613 388.43402596 95.11843085 388.43846989 C91.5137903 388.44140456 87.9091529 388.44551024 84.30451393 388.44997406 C73.01121971 388.46364856 61.71793274 388.47331399 50.42463082 388.47717595 C37.41788859 388.48164892 24.41125185 388.49916165 11.40454167 388.52817655 C1.33374783 388.54985639 -8.73701647 388.55988368 -18.80783337 388.56121707 C-24.81385335 388.5622611 -30.81977416 388.56808231 -36.82576942 388.58603668 C-42.48520354 388.6026253 -48.14446512 388.60462091 -53.80391502 388.59589767 C-55.86892029 388.59513289 -57.93393524 388.59939522 -59.99891663 388.60935593 C-84.67671566 388.7213058 -112.05747662 385.64127448 -130.63671875 367.609375 C-159.96309459 335.65046991 -154.97237568 279.3559585 -154.97975707 239.024472 C-154.98047882 236.79703391 -154.98263389 234.56960161 -154.98525429 232.34216499 C-154.99445318 224.50048571 -154.99859672 216.65882317 -154.99780273 208.81713867 C-154.99727147 202.41639692 -155.00430156 196.01571641 -155.01831055 189.61499023 C-155.31564628 50.64708804 -155.31564628 50.64708804 -131.8125 25.23828125 C-131.21566406 24.58859375 -130.61882812 23.93890625 -130.00390625 23.26953125 C-116.29791237 9.79672063 -97.29370925 5.96224691 -79 3.05078125 C-77.98897217 2.88352539 -76.97794434 2.71626953 -75.9362793 2.54394531 C-51.00978787 -1.138744 -25.14255352 0.04797942 0 0 Z M-56.6796875 8.57421875 C-57.63416904 8.63246449 -58.58865059 8.69071022 -59.57205582 8.75072098 C-70.55154058 9.44720729 -81.08390085 10.77234033 -91.8125 13.23828125 C-92.58565552 13.40329132 -93.35881104 13.56830139 -94.15539551 13.73831177 C-109.42357735 17.0477905 -122.36152387 23.38941161 -131.1484375 36.51171875 C-144.83404126 58.93554838 -145.66373571 87.32529785 -146.36669922 112.8581543 C-146.38766151 113.59113719 -146.40862381 114.32412009 -146.43022132 115.07931459 C-146.88126886 131.07701564 -146.96107352 147.0688179 -146.9468255 163.07190156 C-146.94421518 166.95098567 -146.94666205 170.83006796 -146.94821167 174.70915222 C-146.95000614 181.19713783 -146.94769716 187.68511187 -146.94287109 194.1730957 C-146.93740365 201.60786792 -146.93922013 209.0426128 -146.9446975 216.47738439 C-146.94927161 222.9530815 -146.94985925 229.42877051 -146.94725883 235.90446872 C-146.94572328 239.73263572 -146.94542599 243.56078996 -146.94879532 247.38895607 C-146.96516502 268.97279972 -146.93773568 290.44938538 -143.9375 311.86328125 C-143.77636719 313.10722656 -143.61523438 314.35117187 -143.44921875 315.6328125 C-140.8789243 334.54141277 -135.52701441 354.95740077 -119.8125 367.23828125 C-85.12194596 388.1980488 -36.46237331 384.38130832 2.6015625 384.44140625 C3.86922832 384.44423363 5.13689415 384.447061 6.44297409 384.44997406 C12.47378187 384.46332374 18.50456782 384.47326619 24.53538764 384.47717595 C30.67795782 384.48118713 36.82037242 384.49344364 42.96289062 384.51953125 C100.41102915 386.65541978 100.41102915 386.65541978 156.4375 376.48828125 C157.19981934 376.22442627 157.96213867 375.96057129 158.74755859 375.6887207 C171.23961897 371.21015868 179.90837993 364.64470612 186.375 352.86328125 C207.33522047 307.75324154 199.51622511 247.00693914 199.44463807 198.40797758 C199.43708523 192.68219881 199.43982818 186.95648915 199.44824219 181.23071289 C199.67233455 138.47388189 199.67233455 138.47388189 198.296875 95.75 C198.25804451 95.03612436 198.21921402 94.32224873 198.17920685 93.58674049 C197.39410142 79.8288968 196.22204249 65.83677586 192.9375 52.42578125 C192.72061523 51.53979248 192.50373047 50.65380371 192.28027344 49.7409668 C189.05830837 37.2254887 183.53114663 25.80071234 172.46875 18.42578125 C148.0621259 5.30394034 117.57833959 6.76610483 90.64067984 6.83530474 C86.62870371 6.84310032 82.61674417 6.8357994 78.60476685 6.83114624 C71.85268401 6.82573098 65.10070044 6.83275295 58.34863281 6.84716797 C51.53053304 6.86156167 44.7126306 6.86171789 37.89453125 6.84716797 C-9.41649033 6.68876184 -9.41649033 6.68876184 -56.6796875 8.57421875 Z " fill="#CEAA70" transform="translate(191.8125,-0.23828125)"/>
<path d="M0 0 C3.5509469 1.54531948 6.09623031 3.70920152 9 6.25 C16.07778402 12.12145066 23.65294205 15.80411594 32.25 18.9375 C38.02387394 21.17254798 43.26157816 24.69869729 46.19921875 30.27734375 C49.09678937 40.12908386 47.4811783 52.43850636 42.7109375 61.4296875 C35.44086073 72.97628002 25.99271544 78.98701448 13 83 C-1.66537366 85.9929334 -15.35000766 83.62725311 -27.921875 75.49609375 C-35.93734965 69.72555467 -42.84067466 60.73526338 -45 51 C-45.30942534 47.91432188 -45.40809455 44.85008526 -45.4375 41.75 C-45.44765137 40.98123535 -45.45780273 40.2124707 -45.46826172 39.42041016 C-45.38023033 33.71076898 -44.08396602 29.76515158 -40.58984375 25.12890625 C-35.29788961 20.11218377 -29.38218824 18.06419106 -22.65283203 15.62744141 C-16.48772062 13.34155865 -11.82946229 10.50064783 -7 6 C-5.648525 4.85099316 -4.29451078 3.70496362 -2.9375 2.5625 C-1.968125 1.716875 -0.99875 0.87125 0 0 Z " fill="#CEA96D" transform="translate(213,154)"/>
<path d="M0 0 C5.28 0 10.56 0 16 0 C16 20.46 16 40.92 16 62 C10.72 62 5.44 62 0 62 C0 41.54 0 21.08 0 0 Z " fill="#CFAC72" transform="translate(206,68)"/>
<path d="M0 0 C1.62215675 0.00333092 1.62215675 0.00333092 3.27708435 0.00672913 C4.49827469 0.00680466 5.71946503 0.00688019 6.97766113 0.00695801 C8.32022644 0.0120654 9.66279134 0.01728141 11.00535583 0.02259827 C12.37156116 0.02446252 13.73776716 0.02588639 15.10397339 0.02688599 C18.70596654 0.03071058 22.30791959 0.04054035 25.90989685 0.05158997 C29.58298703 0.06180536 33.25608368 0.06638388 36.92918396 0.07142639 C44.14079293 0.08216268 51.35236054 0.09975899 58.56394958 0.12025452 C58.56394958 5.40025452 58.56394958 10.68025452 58.56394958 16.12025452 C38.10394958 16.12025452 17.64394958 16.12025452 -3.43605042 16.12025452 C-3.43605042 0.16961906 -3.43605042 0.16961906 0 0 Z " fill="#CFAC72" transform="translate(278.43605041503906,190.87974548339844)"/>
<path d="M0 0 C5.28 0 10.56 0 16 0 C16 20.13 16 40.26 16 61 C10.72 61 5.44 61 0 61 C0 40.87 0 20.74 0 0 Z " fill="#CFAB71" transform="translate(206,261)"/>
<path d="M0 0 C20.46 0 40.92 0 62 0 C62 4.95 62 9.9 62 15 C41.54 15 21.08 15 0 15 C0 10.05 0 5.1 0 0 Z " fill="#CEAA6E" transform="translate(91,192)"/>
</svg>
